<svg width="28" height="28" viewBox="0 0 28 28" fill="none" xmlns="http://www.w3.org/2000/svg">
<g id="arcticons:battleforwesnoth">
<path id="Vector" d="M14.105 24.7916C16.73 22.6625 20.7317 20.6441 20.7317 12.04V6.67331C18.3984 6.67331 16.3625 5.57664 14.0817 4.64331C11.9292 5.53581 9.64252 6.68498 7.16919 6.66164V12.0691C7.26252 20.2708 11.0834 22.75 14.105 24.7916Z" stroke="#0F002B" stroke-width="0.8" stroke-linecap="round" stroke-linejoin="round"/>
<path id="Vector_2" d="M19.425 19.0984C21.6767 20.8484 22.8842 22.8609 24.0917 24.7684C21.9793 23.7783 20.0915 22.3669 18.5442 20.6209M8.49336 18.9059C6.19503 20.8892 4.56753 22.7559 3.78003 24.64C5.74003 23.4734 7.47836 22.5167 9.28086 20.3642M3.92586 3.40088L7.19253 6.66171M8.54003 4.47421L6.63253 6.10171L5.00503 8.00921M24.0159 3.40671L20.755 6.67338M22.9425 8.02088L21.315 6.11338L19.4075 4.48005M14.105 8.33004C12.7895 8.79563 11.4345 9.14121 10.0567 9.36254C9.78253 14.1867 11.4975 17.5292 14.105 20.09C16.7592 17.5 17.9375 14 17.8967 9.54921C16.586 9.30614 15.3118 8.89643 14.105 8.33004Z" stroke="#0F002B" stroke-width="0.8" stroke-linecap="round" stroke-linejoin="round"/>
</g>
</svg>
