<svg width="20" height="20" viewBox="0 0 20 20" fill="none" xmlns="http://www.w3.org/2000/svg">
<g id="game-icons:receive-money" clip-path="url(#clip0_25_35)">
<path id="Vector" d="M10.0781 0.855072C10.0586 0.855072 10.0313 0.855072 10.0078 0.85976C9.82813 0.892963 9.61328 1.05898 9.47266 1.43828C9.32422 1.81718 9.29297 2.35742 9.42188 2.93593C9.55469 3.50742 9.82812 3.99999 10.1328 4.30078C10.4297 4.60156 10.6992 4.68359 10.8789 4.65234C11.0664 4.62499 11.2734 4.45312 11.4141 4.07812C11.5625 3.70156 11.6016 3.1539 11.4688 2.58007C11.332 2.00195 11.0625 1.51406 10.7578 1.21523C10.5 0.949603 10.2617 0.855072 10.0781 0.855072ZM14.5859 5.91406C14.1562 5.92578 13.6133 6.03906 13.0859 6.26171C12.4766 6.52734 12.0078 6.88281 11.75 7.21874C11.4922 7.54296 11.4688 7.78906 11.5508 7.93359C11.6367 8.07812 11.875 8.21484 12.332 8.23437C12.7891 8.26171 13.4062 8.14843 14.0117 7.89062C14.6172 7.6289 15.0938 7.26953 15.3516 6.9414C15.6094 6.61718 15.6289 6.36328 15.5469 6.21874C15.4648 6.07031 15.2227 5.9414 14.7656 5.92578C14.7031 5.91406 14.6484 5.91406 14.5859 5.91406ZM9.26172 9.54296C9.00391 9.54687 8.76953 9.57812 8.55859 9.63281C8.09766 9.74999 7.83203 9.96093 7.74609 10.2148C7.64844 10.4687 7.74609 10.7734 8.05078 11.1016C8.37109 11.4219 8.89844 11.7305 9.55469 11.9023C10.207 12.0742 10.8359 12.0703 11.3047 11.9453C11.7773 11.8242 12.043 11.6094 12.1289 11.3594C12.2188 11.1055 12.1289 10.8047 11.8125 10.4727C11.5039 10.1523 10.9766 9.84374 10.3203 9.67578C9.94922 9.57812 9.58594 9.53906 9.26172 9.54296ZM15.5391 11.8125L13.125 12.957C13.2891 12.9648 13.6992 12.9766 13.6992 12.9766L13.957 13.3164L16.0938 12.2031L15.5391 11.8125ZM13.4102 11.8164L11.168 12.8789C11.3828 12.8906 11.8906 12.8984 12.0938 12.9101L14.0391 11.9883L13.4102 11.8164ZM17.0273 12.2383L14.2734 13.6992L14.8398 14.4297L17.75 12.6875L17.0273 12.2383ZM6.13672 12.5937C6.01844 12.5935 5.90051 12.6066 5.78516 12.6328C2.99219 13.2773 1.34375 13.332 0.855469 13.332H0.703125V17.5312C0.703125 17.5312 1.15625 17.4648 1.91016 17.4609C3.36719 17.4609 5.93359 17.7109 8.43359 19.1719C8.56641 19.2539 8.85156 19.2852 9.20703 19.2852C10.1562 19.2852 11.5977 19.0586 11.9297 18.9336C15.2734 17.6797 19.2969 14.2383 19.2969 14.2383L18.0273 13.1289C18.0273 13.1289 14.9102 15.1172 14.5156 15.3086C10.957 17.0547 8.07422 15.9648 8.07422 15.9648C8.07422 15.9648 12.7578 16.082 14.2617 14.8984L13.3789 13.5703C13.3789 13.5703 10.1445 13.4805 8.99219 13.3281C8.39062 13.25 7.08984 12.5937 6.13672 12.5937Z" fill="black"/>
</g>
<defs>
<clipPath id="clip0_25_35">
<rect width="20" height="20" fill="white"/>
</clipPath>
</defs>
</svg>
