<svg width="20" height="20" viewBox="0 0 20 20" fill="none" xmlns="http://www.w3.org/2000/svg">
<g id="iconamoon:notification-light">
<g id="Group">
<path id="Vector" d="M5 15.8334V8.33337C5 7.00729 5.52679 5.73552 6.46447 4.79784C7.40215 3.86016 8.67392 3.33337 10 3.33337C11.3261 3.33337 12.5979 3.86016 13.5355 4.79784C14.4732 5.73552 15 7.00729 15 8.33337V15.8334M5 15.8334H15M5 15.8334H3.33334M15 15.8334H16.6667M9.16667 18.3334H10.8333" stroke="black" stroke-width="1.25" stroke-linecap="round" stroke-linejoin="round"/>
<path id="Vector_2" d="M10 3.33335C10.4602 3.33335 10.8333 2.96026 10.8333 2.50002C10.8333 2.03978 10.4602 1.66669 10 1.66669C9.53977 1.66669 9.16667 2.03978 9.16667 2.50002C9.16667 2.96026 9.53977 3.33335 10 3.33335Z" stroke="black" stroke-width="1.25"/>
</g>
</g>
</svg>
