<svg width="33" height="33" viewBox="0 0 33 33" fill="none" xmlns="http://www.w3.org/2000/svg">
<g id="logos:facebook" clip-path="url(#clip0_1_240)">
<path id="Vector" d="M32.52 16.2C32.52 7.25304 25.267 0 16.32 0C7.37304 0 0.119995 7.25292 0.119995 16.2C0.119995 24.2858 6.04413 30.9879 13.7887 32.2032V20.8828H9.67546V16.2H13.7887V12.6309C13.7887 8.57081 16.2074 6.32813 19.9077 6.32813C21.6802 6.32813 23.5341 6.64453 23.5341 6.64453V10.6313H21.4913C19.4787 10.6313 18.8512 11.88 18.8512 13.1612V16.2H23.3442L22.626 20.8828H18.8512V32.2032C26.5959 30.9879 32.52 24.286 32.52 16.2Z" fill="#1877F2"/>
<path id="Vector_2" d="M22.626 20.8828L23.3442 16.2H18.8513V13.1612C18.8513 11.8799 19.4789 10.6313 21.4914 10.6313H23.5341V6.64453C23.5341 6.64453 21.6802 6.32812 19.9077 6.32812C16.2074 6.32812 13.7888 8.57081 13.7888 12.6309V16.2H9.67548V20.8828H13.7888V32.2032C14.6261 32.3344 15.4724 32.4002 16.32 32.4C17.1676 32.4003 18.0139 32.3345 18.8513 32.2032V20.8828H22.626Z" fill="white"/>
</g>
<defs>
<clipPath id="clip0_1_240">
<rect width="32.4" height="32.4" fill="white" transform="translate(0.119995)"/>
</clipPath>
</defs>
</svg>
