<svg width="36" height="36" viewBox="0 0 36 36" fill="none" xmlns="http://www.w3.org/2000/svg">
<g id="logos:whatsapp-icon" clip-path="url(#clip0_1_235)">
<path id="Vector" d="M1.27408 17.8882C1.27325 20.8624 2.05041 23.7666 3.52815 26.3264L1.13275 35.0724L10.0832 32.7256C12.5588 34.0732 15.3325 34.7794 18.1511 34.7796H18.1585C27.4634 34.7796 35.0377 27.208 35.0417 17.9015C35.0435 13.3918 33.2889 9.15122 30.1009 5.96083C26.9136 2.77071 22.6745 1.01292 18.1578 1.01086C8.85188 1.01086 1.27806 8.58207 1.27421 17.8882" fill="url(#paint0_linear_1_235)"/>
<path id="Vector_2" d="M0.670129 17.8827C0.669169 20.964 1.47418 23.972 3.00461 26.6235L0.523315 35.683L9.79469 33.252C12.3492 34.6449 15.2254 35.3792 18.1521 35.3803H18.1597C27.7983 35.3803 35.6448 27.5363 35.6489 17.8967C35.6505 13.225 33.8328 8.83195 30.531 5.52726C27.2288 2.22299 22.8381 0.401945 18.1597 0.400024C8.51932 0.400024 0.673971 8.24291 0.670129 17.8827ZM6.19143 26.1668L5.84525 25.6173C4.39001 23.3034 3.62191 20.6295 3.62301 17.8838C3.62617 9.87145 10.1469 3.35277 18.1651 3.35277C22.0482 3.35442 25.6974 4.86811 28.4421 7.61449C31.1867 10.3611 32.697 14.0123 32.696 17.8956C32.6925 25.9079 26.1716 32.4274 18.1597 32.4274H18.1539C15.5451 32.426 12.9866 31.7255 10.7553 30.4015L10.2243 30.0866L4.72247 31.5291L6.19143 26.1667V26.1668Z" fill="url(#paint1_linear_1_235)"/>
<path id="Vector_3" d="M13.7896 10.5738C13.4622 9.8462 13.1177 9.83152 12.8064 9.81876C12.5514 9.80778 12.26 9.80861 11.9688 9.80861C11.6774 9.80861 11.2039 9.91824 10.8037 10.3552C10.403 10.7927 9.27405 11.8497 9.27405 13.9997C9.27405 16.1497 10.84 18.2275 11.0583 18.5193C11.2769 18.8106 14.0815 23.3638 18.5232 25.1154C22.2147 26.5711 22.9659 26.2815 23.7671 26.2086C24.5684 26.1358 26.3526 25.1518 26.7166 24.1313C27.0809 23.1111 27.0809 22.2365 26.9717 22.0537C26.8625 21.8716 26.5711 21.7623 26.1341 21.5438C25.6969 21.3253 23.5485 20.2681 23.148 20.1222C22.7473 19.9765 22.456 19.9038 22.1646 20.3413C21.8732 20.7782 21.0363 21.7623 20.7812 22.0537C20.5264 22.3458 20.2714 22.3822 19.8345 22.1636C19.3972 21.9444 17.9899 21.4835 16.3202 19.9949C15.0211 18.8366 14.144 17.4062 13.8891 16.9686C13.6341 16.5317 13.8618 16.2949 14.0809 16.0772C14.2772 15.8814 14.5181 15.5669 14.7368 15.3118C14.9547 15.0566 15.0274 14.8745 15.1731 14.5831C15.3189 14.2914 15.2459 14.0362 15.1369 13.8176C15.0274 13.599 14.1782 11.4378 13.7896 10.5738Z" fill="white"/>
</g>
<defs>
<linearGradient id="paint0_linear_1_235" x1="1696.58" y1="3407.16" x2="1696.58" y2="1.01086" gradientUnits="userSpaceOnUse">
<stop stop-color="#1FAF38"/>
<stop offset="1" stop-color="#60D669"/>
</linearGradient>
<linearGradient id="paint1_linear_1_235" x1="1756.8" y1="3528.7" x2="1756.8" y2="0.400024" gradientUnits="userSpaceOnUse">
<stop stop-color="#F9F9F9"/>
<stop offset="1" stop-color="white"/>
</linearGradient>
<clipPath id="clip0_1_235">
<rect width="35.1345" height="35.4" fill="white" transform="translate(0.52002 0.400024)"/>
</clipPath>
</defs>
</svg>
