<svg width="20" height="20" viewBox="0 0 20 20" fill="none" xmlns="http://www.w3.org/2000/svg">
<g id="mdi:history">
<path id="Vector" d="M11.25 6.66667H10V10.8333L13.5667 12.95L14.1667 11.9417L11.25 10.2083V6.66667ZM10.8333 2.5C8.84421 2.5 6.93656 3.29018 5.53003 4.6967C4.12351 6.10322 3.33334 8.01088 3.33334 10H0.833336L4.13334 13.3583L7.5 10H5C5 8.4529 5.61458 6.96917 6.70855 5.87521C7.80251 4.78125 9.28624 4.16667 10.8333 4.16667C12.3804 4.16667 13.8642 4.78125 14.9581 5.87521C16.0521 6.96917 16.6667 8.4529 16.6667 10C16.6667 11.5471 16.0521 13.0308 14.9581 14.1248C13.8642 15.2188 12.3804 15.8333 10.8333 15.8333C9.225 15.8333 7.76667 15.175 6.71667 14.1167L5.53334 15.3C6.22623 16.0005 7.05182 16.5559 7.96183 16.9336C8.87185 17.3114 9.84804 17.5039 10.8333 17.5C12.8225 17.5 14.7301 16.7098 16.1366 15.3033C17.5432 13.8968 18.3333 11.9891 18.3333 10C18.3333 8.01088 17.5432 6.10322 16.1366 4.6967C14.7301 3.29018 12.8225 2.5 10.8333 2.5Z" fill="black"/>
</g>
</svg>
