<svg width="27" height="28" viewBox="0 0 27 28" fill="none" xmlns="http://www.w3.org/2000/svg">
<g id="solar:copy-linear">
<g id="Group">
<path id="Vector" d="M6.63995 12.9C6.63995 9.78919 6.63995 8.23269 7.60685 7.26689C8.57265 6.29999 10.1292 6.29999 13.24 6.29999H16.54C19.6508 6.29999 21.2073 6.29999 22.1731 7.26689C23.14 8.23269 23.14 9.78919 23.14 12.9V18.4C23.14 21.5108 23.14 23.0673 22.1731 24.0331C21.2073 25 19.6508 25 16.54 25H13.24C10.1292 25 8.57265 25 7.60685 24.0331C6.63995 23.0673 6.63995 21.5108 6.63995 18.4V12.9Z" stroke="black" stroke-width="1.65"/>
<path id="Vector_2" d="M6.63997 21.7C5.76475 21.7 4.92538 21.3523 4.30651 20.7335C3.68764 20.1146 3.33997 19.2752 3.33997 18.4V11.8C3.33997 7.6519 3.33997 5.5773 4.62917 4.2892C5.91727 3 7.99187 3 12.14 3H16.54C17.4152 3 18.2545 3.34768 18.8734 3.96655C19.4923 4.58542 19.84 5.42479 19.84 6.3" stroke="black" stroke-width="1.65"/>
</g>
</g>
</svg>
