<svg width="20" height="20" viewBox="0 0 20 20" fill="none" xmlns="http://www.w3.org/2000/svg">
<g id="twemoji:money-mouth-face" clip-path="url(#clip0_25_13)">
<path id="Vector" d="M20 10C20 15.5228 15.5228 20 10 20C4.47778 20 0 15.5228 0 10C0 4.47778 4.47778 0 10 0C15.5228 0 20 4.47778 20 10Z" fill="#FFCC4D"/>
<path id="Vector_2" d="M3.88889 11.8128C3.88889 14.015 6.44222 16.8128 10 16.8128C13.5578 16.8128 16.1111 14.035 16.1111 11.8128C16.1111 11.8128 10.3706 13.3439 3.88889 11.8128Z" fill="#664500"/>
<path id="Vector_3" d="M6.66666 12.7794V16.6467C6.66666 18.3133 7.77778 19.98 10 19.98C12.2222 19.98 13.3333 18.3133 13.3333 16.6467V12.8022C9.83833 13.52 6.66666 12.7794 6.66666 12.7794Z" fill="#5D9040"/>
<path id="Vector_4" d="M6.82445 6.85C6.40445 6.68778 6.00722 6.53444 6.00722 6.31222C6.00722 5.94611 6.49833 5.92722 6.59667 5.92722C6.94389 5.92722 7.11667 6.05722 7.26889 6.17222C7.38556 6.26055 7.50667 6.35167 7.675 6.35167C7.98833 6.35167 8.13111 6.13111 8.13111 5.92611C8.13111 5.51722 7.63 5.22833 7.09889 5.10722V4.88889C7.0927 4.7547 7.03503 4.62806 6.93788 4.53528C6.84072 4.44251 6.71156 4.39075 6.57722 4.39075C6.44289 4.39075 6.31372 4.44251 6.21657 4.53528C6.11942 4.62806 6.06175 4.7547 6.05556 4.88889V5.12555C5.42 5.31055 5.03056 5.77778 5.03056 6.36722C5.03056 7.09555 5.74889 7.39444 6.38278 7.65778C6.83667 7.84667 7.26556 8.025 7.26556 8.30333C7.26556 8.50667 7.01 8.72667 6.59722 8.72667C6.18056 8.72667 5.94167 8.56 5.73056 8.41333C5.585 8.31167 5.44722 8.21555 5.28278 8.21555C5.04389 8.21555 4.85722 8.41667 4.85722 8.67333C4.85722 9.05055 5.37445 9.42667 6.05556 9.55889V9.82C6.05556 9.95835 6.11052 10.091 6.20835 10.1889C6.30618 10.2867 6.43887 10.3417 6.57722 10.3417C6.71558 10.3417 6.84827 10.2867 6.9461 10.1889C7.04393 10.091 7.09889 9.95835 7.09889 9.82L7.09611 9.54333C7.81611 9.36833 8.24167 8.86444 8.24167 8.17722C8.24222 7.39722 7.45611 7.09389 6.82445 6.85ZM14.83 8.18667C14.83 7.40667 14.0439 7.10333 13.4122 6.85944C12.9922 6.69722 12.5956 6.54389 12.5956 6.32167C12.5956 5.95555 13.0867 5.93667 13.185 5.93667C13.5322 5.93667 13.7044 6.06667 13.8572 6.18167C13.9744 6.27 14.095 6.36111 14.2628 6.36111C14.5767 6.36111 14.7194 6.14055 14.7194 5.93555C14.7194 5.52611 14.2183 5.23778 13.6872 5.11667V4.89889C13.6828 4.76341 13.6259 4.63495 13.5285 4.54068C13.4311 4.4464 13.3008 4.3937 13.1653 4.3937C13.0297 4.3937 12.8995 4.4464 12.8021 4.54068C12.7047 4.63495 12.6478 4.76341 12.6433 4.89889V5.13555C12.0083 5.32055 11.6183 5.78778 11.6183 6.37722C11.6183 7.10555 12.3367 7.40444 12.9706 7.66778C13.4244 7.85667 13.8533 8.035 13.8533 8.31333C13.8533 8.51666 13.5983 8.73667 13.1856 8.73667C12.7689 8.73667 12.53 8.57 12.3194 8.42333C12.1733 8.32167 12.0356 8.22555 11.8717 8.22555C11.6322 8.22555 11.4456 8.42667 11.4456 8.68333C11.4456 9.06055 11.9628 9.43667 12.6433 9.56889V9.83C12.6433 9.96843 12.6983 10.1012 12.7962 10.1991C12.8941 10.297 13.0269 10.3519 13.1653 10.3519C13.3037 10.3519 13.4365 10.297 13.5343 10.1991C13.6322 10.1012 13.6872 9.96843 13.6872 9.83L13.6856 9.55333C14.405 9.37722 14.83 8.87389 14.83 8.18667Z" fill="#664500"/>
<path id="Vector_5" d="M11.65 17.2605C11.65 16.5005 10.8839 16.2044 10.2683 15.9667C9.85889 15.8089 9.47167 15.6589 9.47167 15.4428C9.47167 15.0855 9.95 15.0678 10.0461 15.0678C10.3844 15.0678 10.5528 15.195 10.7017 15.3067C10.8156 15.3928 10.9339 15.4817 11.0978 15.4817C11.4033 15.4817 11.5428 15.2661 11.5428 15.0667C11.5428 14.6683 11.0544 14.3867 10.5361 14.2683V14.0555C10.53 13.9247 10.4737 13.8012 10.3789 13.7108C10.2842 13.6203 10.1582 13.5699 10.0272 13.5699C9.89623 13.5699 9.77026 13.6203 9.6755 13.7108C9.58073 13.8012 9.52445 13.9247 9.51833 14.0555V14.2861C8.89889 14.4661 8.51889 14.9222 8.51889 15.4967C8.51889 16.2067 9.21944 16.4983 9.83722 16.755C10.28 16.9389 10.6978 17.1128 10.6978 17.3839C10.6978 17.5822 10.4489 17.7967 10.0461 17.7967C9.64 17.7967 9.40722 17.6344 9.20167 17.4905C9.06 17.3917 8.92555 17.2978 8.76555 17.2978C8.53278 17.2978 8.35 17.4944 8.35 17.7444C8.35 18.1128 8.85389 18.4789 9.51778 18.6078V18.8628C9.51778 18.9977 9.57139 19.1272 9.66683 19.2226C9.76226 19.318 9.8917 19.3717 10.0267 19.3717C10.1616 19.3717 10.2911 19.318 10.3865 19.2226C10.4819 19.1272 10.5356 18.9977 10.5356 18.8628L10.5339 18.5928C11.2356 18.4211 11.65 17.93 11.65 17.2605Z" fill="white"/>
</g>
<defs>
<clipPath id="clip0_25_13">
<rect width="20" height="20" fill="white"/>
</clipPath>
</defs>
</svg>
